<svg width="24" height="24" fill="none" xmlns="http://www.w3.org/2000/svg"><path d="M5.004 14.17a2.984 2.984 0 00-.608.294 7.063 7.063 0 01-2.314-1.555 7.081 7.081 0 010-10.03c.284-.283.582-.539.901-.766.533-.376 1.37.256 1.314.844a7.07 7.07 0 002.051 5.69 7.054 7.054 0 001.995 1.407 4 4 0 00-3.34 4.115zm5.529-8.708l.527 1.746a5.64 5.64 0 00-.154.128L9.371 6.294 7.594 7.5l.615-2.038L6.5 4.169l2.155-.06.716-1.998.716 1.998 2.155.06-1.709 1.293zm6.075-1.186l1.108-.833-1.392-.033-.466-1.299-.466 1.3L14 3.442l1.108.833-.399 1.319 1.149-.78 1.148.78-.398-1.319z" fill="#fff"/><path d="M7 21h13a4 4 0 00.966-7.883 5.5 5.5 0 00-10.76-2.112 4 4 0 00-4.202 4.164A3.001 3.001 0 007 21z" fill="#fff"/></svg>